# xmcd CD database file
#
# Track frame offsets:
#	150
#	19097
#	35525
#	54997
#	73130
#	97912
#	116545
#	134307
#	151192
#	170852
#
# Disc length: 2640 seconds
#
# Revision: 0
# Processed by: cddbd v1.5PL3 Copyright (c) Steve Scherf et al.
# Submitted via: CDex 1.50Beta7
#
DISCID=800a4e0a
DTITLE=和田加奈子 - VOCU
DYEAR=1988
DGENRE=Pop
TTITLE0=ママはライバル
TTITLE1=Hellow My Radio
TTITLE2=あの空を抱きしめて
TTITLE3=失恋教室
TTITLE4=プラモデルの翼
TTITLE5=ラッキー･ラブ
TTITLE6=Asian Dream
TTITLE7=向かい風に
TTITLE8=パパのJAZZ
TTITLE9=約束のイヴ
EXTD=YEAR: 1988
EXTT0=
EXTT1=
EXTT2=
EXTT3=
EXTT4=
EXTT5=
EXTT6=
EXTT7=
EXTT8=
EXTT9=
PLAYORDER=
